<svg width="19" height="23" viewBox="0 0 19 23" fill="none" xmlns="http://www.w3.org/2000/svg">
<path d="M13.8673 0.0114684C13.8186 -0.0429587 12.0641 0.0329528 10.5373 1.69011C9.01044 3.34584 9.24534 5.24506 9.27971 5.29376C9.31409 5.34246 11.4568 5.41837 12.8246 3.49194C14.1925 1.5655 13.916 0.0673278 13.8673 0.0114684ZM18.614 16.8165C18.5452 16.679 15.2839 15.0491 15.5875 11.9152C15.8912 8.77996 17.9866 7.92058 18.0196 7.82748C18.0525 7.73439 17.1645 6.69597 16.2235 6.17032C15.5325 5.79972 14.7679 5.58739 13.9848 5.54871C13.8301 5.54441 13.293 5.41264 12.1887 5.71485C11.4611 5.91394 9.82112 6.55847 9.36995 6.58426C8.91734 6.61004 7.57099 5.8366 6.12294 5.63178C5.19625 5.45274 4.2137 5.81941 3.51044 6.10157C2.80862 6.3823 1.47372 7.18152 0.539868 9.30561C-0.393986 11.4283 0.094425 14.7913 0.443904 15.8369C0.793383 16.881 1.33909 18.5926 2.26721 19.8415C3.09221 21.2509 4.18648 22.2292 4.64338 22.5615C5.10029 22.8938 6.38935 23.1143 7.2831 22.6574C8.00211 22.2163 9.29976 21.9628 9.81252 21.9814C10.3239 22 11.3322 22.202 12.3649 22.7534C13.1827 23.0356 13.9561 22.9181 14.731 22.603C15.5059 22.2865 16.6274 21.0862 17.9365 18.6527C18.4335 17.5212 18.6598 16.9096 18.614 16.8165Z" fill="white"/>
</svg>
