<svg width="23" height="23" viewBox="0 0 23 23" fill="none" xmlns="http://www.w3.org/2000/svg">
    <path d="M22.6936 9.21414H21.7707V9.16659H11.4582V13.7499H17.9339C16.9891 16.4179 14.4506 18.3332 11.4582 18.3332C7.66155 18.3332 4.5833 15.2549 4.5833 11.4582C4.5833 7.66155 7.66155 4.5833 11.4582 4.5833C13.2108 4.5833 14.8052 5.24444 16.0192 6.32437L19.2602 3.08341C17.2137 1.17619 14.4763 0 11.4582 0C5.13043 0 0 5.13043 0 11.4582C0 17.7861 5.13043 22.9165 11.4582 22.9165C17.7861 22.9165 22.9165 17.7861 22.9165 11.4582C22.9165 10.69 22.8374 9.94002 22.6936 9.21414Z" fill="#FFC107"/>
    <path d="M1.32086 6.125L5.08546 8.88586C6.1041 6.3639 8.57106 4.58329 11.458 4.58329C13.2105 4.58329 14.8049 5.24443 16.0189 6.32437L19.2599 3.08341C17.2134 1.17619 14.4761 0 11.458 0C7.05685 0 3.24012 2.48472 1.32086 6.125Z" fill="#FF3D00"/>
    <path d="M11.458 22.9168C14.4176 22.9168 17.1069 21.7841 19.1401 19.9422L15.5938 16.9413C14.4048 17.8456 12.9518 18.3346 11.458 18.3335C8.47767 18.3335 5.94712 16.4331 4.99379 13.7811L1.25726 16.66C3.1536 20.3707 7.00471 22.9168 11.458 22.9168Z" fill="#4CAF50"/>
    <path d="M22.6931 9.21436H21.7701V9.16681H11.4577V13.7501H17.9333C17.4814 15.0199 16.6674 16.1295 15.5918 16.9418L15.5936 16.9407L19.1399 19.9416C18.8889 20.1696 22.9159 17.1876 22.9159 11.4585C22.9159 10.6902 22.8369 9.94024 22.6931 9.21436Z" fill="#1976D2"/>
</svg>
